<?xml version="1.0" encoding="iso-8859-1"?>
<!-- Generator: Adobe Illustrator 16.0.0, SVG Export Plug-In . SVG Version: 6.00 Build 0)  -->
<!DOCTYPE svg PUBLIC "-//W3C//DTD SVG 1.1//EN" "http://www.w3.org/Graphics/SVG/1.1/DTD/svg11.dtd">
<svg version="1.1" id="Capa_1" xmlns="http://www.w3.org/2000/svg" xmlns:xlink="http://www.w3.org/1999/xlink" x="0px" y="0px"
	 width="612.376px" height="612.377px" viewBox="0 0 612.376 612.377" style="enable-background:new 0 0 612.376 612.377;"
	 xml:space="preserve">
<g>
	<g id="Shape_356_1_">
		<g>
			<path d="M499.22,444.717c-5.673,0-10.264,4.642-10.264,10.335c0,5.733,4.591,10.335,10.264,10.335
				c5.662,0,10.263-4.611,10.263-10.335C509.473,449.358,504.882,444.717,499.22,444.717z M499.22,351.644
				c-5.673,0-10.264,4.632-10.264,10.324c0,5.714,4.591,10.355,10.264,10.355c5.662,0,10.263-4.642,10.263-10.355
				C509.473,356.275,504.882,351.644,499.22,351.644z M406.871,424.017c-5.672,0-10.263,4.643-10.263,10.355
				c0,5.692,4.591,10.335,10.263,10.335c5.662,0,10.264-4.643,10.264-10.335C417.134,428.659,412.533,424.017,406.871,424.017z
				 M406.871,330.943c-5.672,0-10.263,4.622-10.263,10.355c0,5.692,4.591,10.335,10.263,10.335c5.662,0,10.264-4.643,10.264-10.335
				C417.134,335.575,412.533,330.943,406.871,330.943z M601.496,373.945c-29.709-109.815-112.202-183.351-184.26-164.202
				c-27.423,7.274-71.598,25.699-102.714,27.8v-30.698h-0.081c0.02-1.765,0.081-3.326,0.081-5.162
				c0-31.433-25.271-56.876-56.438-56.876h-82.086c-19.833,0-35.911-16.211-35.911-36.197c0-20.006,16.079-36.217,35.911-36.217
				h118.007c11.334,0,20.517-9.253,20.517-20.68V10.334C314.522,4.621,309.931,0,304.258,0c-5.672,0-10.253,4.631-10.253,10.334
				v20.7c0,20.496-0.836,20.68-20.527,20.68h-97.48c-31.167,0-56.438,25.464-56.438,56.897c0,31.412,25.271,56.876,56.438,56.876
				h82.086c19.833,0,35.911,16.211,35.911,36.197c0,1.836,0.061,3.417,0.092,5.162h-0.082v30.861
				c-30.729-2.173-74.261-20.639-101.296-27.954c-71.159-19.2-152.622,54.672-181.963,164.997
				c-29.331,110.335,4.57,215.365,75.73,234.597c53.091,14.323,111.845-23.261,150.48-89.054c21.343,4.54,43.848,7.151,67.313,7.151
				c23.761,0,46.552-4.142,68.161-8.661c39.124,65.486,98.612,102.897,152.377,88.635
				C596.864,588.29,631.204,483.76,601.496,373.945z M201.656,393.003h-41.042v41.379c0,5.693-4.591,10.335-10.263,10.335
				c-5.672,0-10.264-4.642-10.264-10.335v-41.379H99.044c-5.672,0-10.263-4.622-10.263-10.335s4.591-10.335,10.263-10.335h41.042
				v-41.379c0-5.693,4.591-10.355,10.264-10.355c5.662,0,10.263,4.662,10.263,10.355v41.379h41.042
				c5.662,0,10.264,4.622,10.264,10.335S207.318,393.003,201.656,393.003z M406.871,465.396c-16.996,0-30.779-13.896-30.779-31.015
				c0-17.139,13.783-31.014,30.779-31.014c16.997,0,30.78,13.885,30.78,31.014C437.651,451.491,423.868,465.396,406.871,465.396z
				 M406.871,372.323c-16.996,0-30.779-13.896-30.779-31.015c0-17.139,13.783-31.034,30.779-31.034
				c16.997,0,30.78,13.896,30.78,31.034C437.651,358.428,423.868,372.323,406.871,372.323z M499.22,486.076
				c-17.007,0-30.78-13.885-30.78-31.015c0-17.14,13.783-31.034,30.78-31.034c16.996,0,30.779,13.895,30.779,31.034
				C530,472.191,516.216,486.076,499.22,486.076z M499.22,393.003c-17.007,0-30.78-13.896-30.78-31.035
				c0-17.119,13.783-31.014,30.78-31.014c16.996,0,30.779,13.895,30.779,31.014C530,379.098,516.216,393.003,499.22,393.003z"/>
		</g>
	</g>
</g>
<g>
</g>
<g>
</g>
<g>
</g>
<g>
</g>
<g>
</g>
<g>
</g>
<g>
</g>
<g>
</g>
<g>
</g>
<g>
</g>
<g>
</g>
<g>
</g>
<g>
</g>
<g>
</g>
<g>
</g>
</svg>
