<?xml version="1.0" encoding="UTF-8" standalone="no"?>
<svg width="90px" height="96px" viewBox="0 0 90 96" version="1.1" xmlns="http://www.w3.org/2000/svg" xmlns:xlink="http://www.w3.org/1999/xlink" xmlns:sketch="http://www.bohemiancoding.com/sketch/ns">
    <!-- Generator: Sketch 3.0.2 (7799) - http://www.bohemiancoding.com/sketch -->
    <title>5f34f2d7-5412-4fca-b548-04bac2a27446-461a5982-fcfc-4730-aa5f-efd7ff9505fb-water</title>
    <description>Created with Sketch.</description>
    <defs></defs>
    <g id="Page-1" stroke="none" stroke-width="1" fill="none" fill-rule="evenodd" sketch:type="MSPage">
        <g id="5f34f2d7-5412-4fca-b548-04bac2a27446-461a5982-fcfc-4730-aa5f-efd7ff9505fb-water" sketch:type="MSLayerGroup" fill="#33B5E5">
            <path d="M62.633,40.761 C54.077,32.225 49.01,25.97 44.637,13.655 C40.216,25.944 35.092,32.169 26.476,40.655 C20.824,46.232 17.84,53.217 17.82,59.793 C17.778,74.387 29.692,86.261 44.423,86.305 C59.149,86.348 71.117,74.545 71.163,59.951 C71.182,53.375 68.265,46.372 62.633,40.761 L62.633,40.761 Z M44.786,77.165 L44.78,79.28 C34.315,79.248 25.885,70.833 25.915,60.481 L29.27,60.492 C29.791,69.348 35.796,75.413 44.79,75.971 L44.786,77.165 L44.786,77.165 Z" id="Shape" sketch:type="MSShapeGroup"></path>
            <path d="M67.386,95.218 L21.083,95.082 C16.984,95.068 13.286,91.905 12.66,87.881 L0.221,8.311 C-0.107,6.215 0.464,4.118 1.793,2.563 C3.131,0.998 5.133,0.101 7.285,0.102 L82.148,0.111 C84.318,0.115 86.313,1.02 87.639,2.586 C88.957,4.145 89.516,6.242 89.17,8.341 L75.865,88.085 C75.205,92.093 71.481,95.231 67.386,95.218 L67.386,95.218 Z M82.151,6.769 L7.284,6.76 C7.087,6.761 6.926,6.81 6.855,6.892 C6.792,6.965 6.772,7.105 6.801,7.279 L19.24,86.851 C19.363,87.64 20.285,88.416 21.103,88.42 L67.405,88.556 C68.226,88.558 69.167,87.786 69.295,86.999 L82.6,7.253 C82.626,7.092 82.61,6.953 82.556,6.889 C82.493,6.816 82.338,6.77 82.151,6.769 L82.151,6.769 Z" id="Shape" sketch:type="MSShapeGroup"></path>
        </g>
    </g>
</svg>