<?xml version="1.0" encoding="UTF-8" standalone="no"?>
<svg width="426px" height="466px" viewBox="0 0 426 466" version="1.1" xmlns="http://www.w3.org/2000/svg" xmlns:xlink="http://www.w3.org/1999/xlink" xmlns:sketch="http://www.bohemiancoding.com/sketch/ns">
    <!-- Generator: Sketch 3.0.4 (8053) - http://www.bohemiancoding.com/sketch -->
    <title>tfss-799a7d9f-b666-492a-a35f-1d77699b51e6-water_light_blue</title>
    <desc>Created with Sketch.</desc>
    <defs></defs>
    <g id="Page-1" stroke="none" stroke-width="1" fill="none" fill-rule="evenodd" sketch:type="MSPage">
        <g id="Assets" sketch:type="MSArtboardGroup" transform="translate(-494.000000, -3119.000000)" fill="#1D8DC8">
            <g id="tfss-799a7d9f-b666-492a-a35f-1d77699b51e6-water_light_blue" sketch:type="MSLayerGroup" transform="translate(494.000000, 3120.000000)">
                <g id="Page-1" sketch:type="MSShapeGroup">
                    <g id="#0fa1d3ff">
                        <path d="M0.47,5.88 C12.28,3.8 24.1,1.72 35.91,-0.37 C61.12,142.53 86.3,285.44 111.51,428.33 C179.17,428.33 246.83,428.33 314.49,428.34 C339.7,285.44 364.88,142.53 390.09,-0.37 C401.91,1.72 413.72,3.79 425.54,5.89 C399.84,151.58 374.16,297.28 348.46,442.98 C347.87,447.67 347.79,452.75 344.75,456.66 C341.47,461.41 335.82,464.4 330.03,464.33 C252.03,464.34 174.03,464.33 96.02,464.33 C89,464.47 82.25,460 79.51,453.56 C77.95,450.27 78.16,446.54 77.56,443.03 C51.85,297.32 26.16,151.6 0.47,5.88 L0.47,5.88 L0.47,5.88 Z" id="Shape"></path>
                        <path d="M250.43,71.71 C266,67.31 282.64,67.48 298.38,70.96 C319.59,75.73 339.58,85.41 357.01,98.34 C339,203.34 321.01,308.34 303,413.33 L123,413.33 C107,321.34 90.99,229.35 75.01,137.36 C95.57,146.26 118.89,149.97 140.91,144.82 C168.02,138.69 191.27,120.63 207.22,98.28 C218.98,85.9 233.93,76.33 250.43,71.71 L250.43,71.71 L250.43,71.71 Z M301.35,99.55 C295.16,101.96 290.83,108.4 291.01,115.05 C290.84,124.36 299.78,132.44 309.03,131.28 C318.65,130.7 326.05,120.47 323.57,111.14 C321.66,101.57 310.31,95.61 301.35,99.55 L301.35,99.55 L301.35,99.55 Z M279.51,144.69 C274.79,147.11 271.98,152.8 273.3,158.01 C274.61,164.36 281.63,168.78 287.92,167 C294.54,165.52 298.78,157.78 296.33,151.4 C294.18,144.72 285.69,141.26 279.51,144.69 L279.51,144.69 L279.51,144.69 Z" id="Shape"></path>
                    </g>
                </g>
            </g>
        </g>
    </g>
</svg>